<svg width="19" height="30" viewBox="0 0 19 30" fill="none" xmlns="http://www.w3.org/2000/svg">
<path d="M11.8202 0C10.0661 0 8.41718 0.70918 7.17694 1.9969C5.93661 3.28472 5.25358 4.99689 5.25349 6.81807V19.0911C5.25349 21.3468 7.02092 23.1819 9.19364 23.182C11.3662 23.1819 13.1336 21.3467 13.1336 19.0909V12.009C13.1336 11.2559 12.5456 10.6453 11.8203 10.6453C11.0949 10.6453 10.5069 11.2559 10.5069 12.009V19.0909C10.5069 19.8429 9.91764 20.4547 9.19364 20.4548C8.46945 20.4548 7.8802 19.843 7.8802 19.0911V6.81807C7.8802 5.72535 8.29014 4.69799 9.03428 3.92535C9.77851 3.15263 10.7678 2.72717 11.8202 2.72717C13.9928 2.72717 15.7603 4.56226 15.7604 6.81789V20.4544C15.7602 24.2139 12.8145 27.2726 9.19364 27.2726C7.43961 27.2726 5.79048 26.5636 4.55024 25.2757C3.30991 23.988 2.62688 22.2757 2.62688 20.4545L2.6267 6.81807C2.6267 6.06489 2.03867 5.45444 1.31335 5.45444C0.588031 5.45444 0 6.06498 0 6.81807L0.000175017 20.4545C8.74606e-05 23.0042 0.956382 25.4013 2.69281 27.2043C4.42923 29.0072 6.73793 30.0001 9.19364 30C14.2627 30 18.3869 25.7179 18.3871 20.4546V6.81798C18.387 3.05854 15.4411 0 11.8202 0Z" fill="#1E1E23"/>
</svg>
