<svg width="30" height="30" viewBox="0 0 30 30" fill="none" xmlns="http://www.w3.org/2000/svg">
<path d="M4.99992 5.01961C4.99992 6.40022 3.88069 7.51945 2.50008 7.51945C1.11923 7.51945 0 6.40022 0 5.01961C0 3.63876 1.11923 2.51953 2.50008 2.51953C3.88069 2.51953 4.99992 3.63876 4.99992 5.01961Z" fill="#1E1E23"/>
<path d="M4.99992 15.0194C4.99992 16.4002 3.88069 17.5195 2.50008 17.5195C1.11923 17.5195 0 16.4002 0 15.0194C0 13.6388 1.11923 12.5195 2.50008 12.5195C3.88069 12.5195 4.99992 13.6388 4.99992 15.0194Z" fill="#1E1E23"/>
<path d="M4.99992 25.0196C4.99992 26.4002 3.88069 27.5197 2.50008 27.5197C1.11923 27.5197 0 26.4002 0 25.0196C0 23.639 1.11923 22.5195 2.50008 22.5195C3.88069 22.5195 4.99992 23.639 4.99992 25.0196Z" fill="#1E1E23"/>
<path d="M10.0002 6.26961H28.7502C29.4414 6.26961 30.0001 5.71091 30.0001 5.01968C30.0001 4.32846 29.4414 3.76953 28.7502 3.76953H10.0002C9.30893 3.76953 8.75 4.32846 8.75 5.01968C8.75 5.71091 9.30893 6.26961 10.0002 6.26961Z" fill="#1E1E23"/>
<path d="M28.7502 13.7695H10.0002C9.30893 13.7695 8.75 14.3282 8.75 15.0195C8.75 15.7107 9.30893 16.2696 10.0002 16.2696H28.7502C29.4414 16.2696 30.0001 15.7107 30.0001 15.0195C30.0001 14.3282 29.4414 13.7695 28.7502 13.7695Z" fill="#1E1E23"/>
<path d="M28.7502 23.7695H10.0002C9.30893 23.7695 8.75 24.3282 8.75 25.0195C8.75 25.7107 9.30893 26.2694 10.0002 26.2694H28.7502C29.4414 26.2694 30.0001 25.7107 30.0001 25.0195C30.0001 24.3282 29.4414 23.7695 28.7502 23.7695Z" fill="#1E1E23"/>
</svg>
