<svg width="19" height="25" viewBox="0 0 19 25" fill="none" xmlns="http://www.w3.org/2000/svg">
<path d="M17.6429 0H12.2105C12.2082 0 12.2058 0 12.2034 0H6.78575C6.03624 0 5.4286 0.508783 5.4286 1.13635C5.4286 1.76392 6.03624 2.27271 6.78575 2.27271H10.5589L5.67316 22.7271H1.35715C0.607641 22.7271 0 23.2358 0 23.8634C0 24.491 0.607641 24.9998 1.35715 24.9998H6.78177L6.7871 25C6.78919 25 6.79308 24.9998 6.79308 24.9998H12.2143C12.9638 24.9998 13.5714 24.491 13.5714 23.8634C13.5714 23.2358 12.9638 22.7271 12.2143 22.7271H8.44111L13.3268 2.27271H17.6429C18.3924 2.27271 19 1.76392 19 1.13635C19 0.508783 18.3925 0 17.6429 0Z" fill="#1E1E23"/>
</svg>
