<svg width="31" height="30" viewBox="0 0 31 30" fill="none" xmlns="http://www.w3.org/2000/svg">
<path d="M16.1516 20.7392L11.5603 25.3306C11.5603 25.3306 11.5603 25.3307 11.5602 25.3307C11.5602 25.3307 11.5602 25.3308 11.5601 25.3308C9.66141 27.2296 6.57189 27.2297 4.67302 25.3308C3.75314 24.4109 3.24666 23.1879 3.24666 21.8872C3.24666 20.5866 3.75314 19.3638 4.6727 18.4439C4.67281 18.4438 4.67292 18.4437 4.67302 18.4436L9.26434 13.8522C9.8982 13.2182 9.8982 12.1903 9.26423 11.5564C8.63037 10.9226 7.60248 10.9226 6.96852 11.5564L2.3772 16.1479C2.37688 16.1482 2.37655 16.1486 2.37623 16.149C0.843915 17.6818 0 19.7197 0 21.8872C0 24.0552 0.844239 26.0935 2.37731 27.6265C3.95973 29.2089 6.03814 30.0001 8.11665 30.0001C10.1952 30.0001 12.2737 29.2089 13.8559 27.6265V27.6264C13.856 27.6264 13.856 27.6263 13.856 27.6263L18.4473 23.0349C19.0812 22.401 19.0812 21.3732 18.4472 20.7392C17.8134 20.1053 16.7857 20.1053 16.1516 20.7392Z" fill="#1E1E23"/>
<path d="M30.0076 8.11276C30.0076 5.94475 29.1632 3.9065 27.6301 2.37343C24.4654 -0.791197 19.3161 -0.791089 16.1516 2.37343C16.1515 2.37365 16.1513 2.37375 16.1512 2.37397L11.5599 6.96507C10.926 7.59893 10.926 8.62693 11.5599 9.26078C11.877 9.57787 12.2924 9.73631 12.7079 9.73631C13.1232 9.73631 13.5388 9.57776 13.8557 9.26078L18.4469 4.66968C18.447 4.66947 18.4472 4.66936 18.4474 4.66914C20.3461 2.7705 23.4356 2.77039 25.3344 4.66914C26.2542 5.58903 26.7609 6.81204 26.7609 8.11276C26.7609 9.41337 26.2544 10.6362 25.3348 11.5561C25.3347 11.5562 25.3345 11.5563 25.3344 11.5564L20.7431 16.1478C20.1093 16.7817 20.1093 17.8096 20.7432 18.4435C21.0602 18.7605 21.4757 18.9191 21.891 18.9191C22.3065 18.9191 22.722 18.7605 23.0389 18.4435L27.6303 13.8521C27.6306 13.8518 27.6309 13.8513 27.6312 13.851C29.1635 12.3182 30.0076 10.2802 30.0076 8.11276Z" fill="#1E1E23"/>
<path d="M9.26454 20.7391C9.58152 21.0561 9.99698 21.2146 10.4123 21.2146C10.8278 21.2146 11.2433 21.0561 11.5602 20.7391L20.7431 11.5563C21.3771 10.9224 21.3771 9.89451 20.7431 9.26055C20.1092 8.62669 19.0813 8.62669 18.4474 9.26055L9.26454 18.4433C8.63057 19.0774 8.63057 20.1053 9.26454 20.7391Z" fill="#1E1E23"/>
</svg>
