<svg width="30" height="30" viewBox="0 0 30 30" fill="none" xmlns="http://www.w3.org/2000/svg">
<g clip-path="url(#clip0)">
<path d="M2.93478 11.0869H0.978261C0.438259 11.0869 0 11.5252 0 12.0652C0 12.6052 0.438259 13.0434 0.978261 13.0434H2.93478C3.11486 13.0434 3.26079 13.1896 3.26079 13.3694V13.6957C3.26079 13.8755 3.11486 14.0217 2.93478 14.0217H2.28253C1.02388 14.0217 0 15.0456 0 16.3042V17.9347C0 18.4747 0.438259 18.913 0.978261 18.913H4.23905C4.77905 18.913 5.21731 18.4747 5.21731 17.9347C5.21731 17.3947 4.77905 16.9565 4.23905 16.9565H1.95652V16.3042C1.95652 16.1244 2.10269 15.9782 2.28253 15.9782H2.93478C4.19343 15.9782 5.21731 14.9543 5.21731 13.6957V13.3694C5.21731 12.1108 4.19343 11.0869 2.93478 11.0869Z" fill="#1E1E23"/>
<path d="M2.93478 21.522H0.978261C0.438259 21.522 0 21.9602 0 22.5002C0 23.0402 0.438259 23.4785 0.978261 23.4785H2.93478C3.11486 23.4785 3.26079 23.6244 3.26079 23.8045V24.1305C3.26079 24.3106 3.11486 24.4568 2.93478 24.4568H1.63051C1.09051 24.4568 0.652254 24.895 0.652254 25.435C0.652254 25.975 1.09051 26.4133 1.63051 26.4133H2.93478C3.11486 26.4133 3.26079 26.5592 3.26079 26.7393V27.0653C3.26079 27.2454 3.11486 27.3915 2.93478 27.3915H0.978261C0.438259 27.3915 0 27.8298 0 28.3698C0 28.9098 0.438259 29.3481 0.978261 29.3481H2.93478C4.19343 29.3481 5.21731 28.3242 5.21731 27.0653V26.7393C5.21731 26.254 5.06207 25.8054 4.8027 25.435C5.06207 25.0646 5.21731 24.6158 5.21731 24.1305V23.8045C5.21731 22.5459 4.19343 21.522 2.93478 21.522Z" fill="#1E1E23"/>
<path d="M0.978261 2.60838H1.95652V7.49967C1.95652 8.03968 2.39478 8.47793 2.93478 8.47793C3.47478 8.47793 3.91304 8.03968 3.91304 7.49967V1.63012C3.91304 1.09011 3.47478 0.651855 2.93478 0.651855H0.978261C0.438259 0.651855 0 1.09011 0 1.63012C0 2.17012 0.438259 2.60838 0.978261 2.60838Z" fill="#1E1E23"/>
<path d="M9.13044 5.86951H28.6956C29.4169 5.86951 30.0001 5.28628 30.0001 4.56501C30.0001 3.84373 29.4169 3.26074 28.6956 3.26074H9.13044C8.40916 3.26074 7.82617 3.84373 7.82617 4.56501C7.82617 5.28628 8.40916 5.86951 9.13044 5.86951Z" fill="#1E1E23"/>
<path d="M28.6956 13.6958H9.13044C8.40916 13.6958 7.82617 14.2788 7.82617 15.0001C7.82617 15.7213 8.40916 16.3043 9.13044 16.3043H28.6956C29.4169 16.3043 30.0001 15.7213 30.0001 15.0001C30.0001 14.2788 29.4169 13.6958 28.6956 13.6958Z" fill="#1E1E23"/>
<path d="M28.6956 24.1304H9.13044C8.40916 24.1304 7.82617 24.7136 7.82617 25.4349C7.82617 26.1561 8.40916 26.7391 9.13044 26.7391H28.6956C29.4169 26.7391 30.0001 26.1561 30.0001 25.4349C30.0001 24.7136 29.4169 24.1304 28.6956 24.1304Z" fill="#1E1E23"/>
</g>
<defs>
<clipPath id="clip0">
<rect width="30" height="30" fill="white"/>
</clipPath>
</defs>
</svg>
